<svg width="24" height="24" viewBox="0 0 24 24" fill="none" xmlns="http://www.w3.org/2000/svg">
<path d="M14.3887 6.97266C13.8895 2.69329 10.3095 -0.454155 6.30957 0.0546875C2.31007 0.564018 -0.44043 4.51674 0.0585938 8.7959C0.471834 12.3393 2.997 15.1038 6.12402 15.6621V20.125C5.91609 20.143 5.68093 20.1828 5.44043 20.2637C5.09735 19.8809 4.50626 19.465 3.68066 19.4648C3.00603 19.4648 2.41364 19.7075 1.99023 20.1377C1.56824 20.5666 1.34089 21.1553 1.34082 21.7979C1.34088 22.2544 1.42697 22.6635 1.53906 22.999H0.855469C0.579422 22.999 0.355623 23.223 0.355469 23.499C0.355566 23.7751 0.579386 23.999 0.855469 23.999H23.5C23.776 23.9989 23.9999 23.775 24 23.499C23.9998 23.2231 23.776 22.9991 23.5 22.999H20.9639C21.0163 22.8471 21.0469 22.6844 21.0469 22.5146V20.4121H21.4697C22.5956 20.412 23.5087 19.4989 23.5088 18.373C23.5086 17.2472 22.5956 16.3341 21.4697 16.334H20.0625V15.2822H20.4854C21.6111 15.282 22.5243 14.3689 22.5244 13.2432C22.5243 12.1174 21.6111 11.2043 20.4854 11.2041H13.8086C14.3411 9.9248 14.5635 8.47166 14.3887 6.97266ZM20.0469 22.5146C20.0469 22.7822 19.83 22.9989 19.5625 22.999C19.295 22.9989 19.0781 22.7822 19.0781 22.5146V20.751H20.0469V22.5146ZM18.0781 22.5146C18.0781 22.6843 18.1077 22.8472 18.1602 22.999H13.0869C13.1394 22.8471 13.1699 22.6844 13.1699 22.5146V20.4121H18.0781V22.5146ZM12.1699 22.5146C12.1699 22.7822 11.9531 22.9989 11.6855 22.999C11.418 22.9989 11.2012 22.7822 11.2012 22.5146V20.751H12.1699V22.5146ZM10.0352 15.1455C10.2616 15.2323 10.5067 15.2822 10.7637 15.2822H11.1855V16.334H9.7793C8.65337 16.334 7.74039 17.2472 7.74023 18.373C7.74036 19.499 8.65335 20.4121 9.7793 20.4121H10.2012V22.5146C10.2012 22.6843 10.2308 22.8472 10.2832 22.999H9.23145C9.23156 22.9956 9.23242 22.9917 9.23242 22.9883C9.23229 22.1096 8.94971 21.3837 8.46094 20.875C8.09324 20.4923 7.62654 20.2507 7.12402 20.1553V15.7637C7.45715 15.7719 7.79486 15.7572 8.13574 15.7139C8.74702 15.6361 9.33207 15.4769 9.88086 15.2471C9.93986 15.2224 9.99144 15.1873 10.0352 15.1455ZM3.68066 20.4648C4.32113 20.465 4.72621 20.9161 4.83398 21.1172L5.07715 21.5713L5.52344 21.3145C5.86656 21.1174 6.26147 21.1094 6.62402 21.1094C7.05957 21.1095 7.45338 21.2709 7.73926 21.5684C8.02369 21.8644 8.23229 22.3288 8.23242 22.9883C8.23242 22.9917 8.23329 22.9956 8.2334 22.999H2.61523C2.49257 22.7501 2.34091 22.321 2.34082 21.7979C2.34089 21.3936 2.48139 21.0642 2.70312 20.8389C2.92354 20.6151 3.25195 20.4648 3.68066 20.4648ZM21.4697 17.334C22.0433 17.3341 22.5086 17.7995 22.5088 18.373C22.5087 18.9466 22.0433 19.412 21.4697 19.4121H9.7793C9.20564 19.4121 8.74036 18.9467 8.74023 18.373C8.74039 17.7994 9.20566 17.334 9.7793 17.334H21.4697ZM19.0625 15.2822V16.334H12.1855V15.2822H19.0625ZM6.42578 1.04785C9.79246 0.619567 12.9518 3.27837 13.3975 7.09863C13.5607 8.49819 13.3316 9.84443 12.8096 11.0068C12.7807 11.071 12.7669 11.1381 12.7656 11.2041H10.7637C9.63775 11.2041 8.72476 12.1173 8.72461 13.2432C8.72466 13.7013 8.87858 14.1224 9.13379 14.4629C8.77736 14.584 8.40551 14.6717 8.02051 14.7207C7.71944 14.759 7.41997 14.7714 7.12402 14.7617V10.9346L10.4277 7.45898C10.6177 7.25881 10.6102 6.9421 10.4102 6.75195C10.2101 6.56191 9.89335 6.57062 9.70312 6.77051L7.12402 9.4834V5.43555C7.12387 5.15968 6.89988 4.93577 6.62402 4.93555C6.34798 4.93555 6.12418 5.15954 6.12402 5.43555V10.7881L4.53125 9.10449C4.34163 8.9041 4.02483 8.89567 3.82422 9.08496C3.62363 9.27471 3.61497 9.59138 3.80469 9.79199L6.12402 12.2432V14.6387C3.54237 14.0847 1.40992 11.7573 1.0498 8.66992C0.604298 4.84966 3.05927 1.47643 6.42578 1.04785ZM20.4854 12.2041C21.0588 12.2043 21.5243 12.6697 21.5244 13.2432C21.5243 13.8166 21.0588 14.282 20.4854 14.2822H10.7637C10.19 14.2822 9.72473 13.8168 9.72461 13.2432C9.72476 12.6696 10.19 12.2041 10.7637 12.2041H20.4854Z" fill="#1C1E2C"/>
</svg>
