<svg width="48" height="64" viewBox="0 0 48 64" fill="none" xmlns="http://www.w3.org/2000/svg">
<path d="M2.07422 0C2.07422 1.04863 3.0068 1.89941 4.15137 1.89941C5.29593 1.8994 6.22559 1.04862 6.22559 0H8.74512C8.74512 1.04863 9.67476 1.89941 10.8193 1.89941C11.9637 1.89921 12.8936 1.0485 12.8936 0H15.4121C15.4121 1.04854 16.3448 1.89927 17.4893 1.89941C18.6338 1.89941 19.5635 1.04863 19.5635 0H22.083C22.083 1.04863 23.0156 1.89941 24.1602 1.89941C25.3047 1.89941 26.2344 1.04863 26.2344 0H28.7539C28.7539 1.04863 29.6865 1.89941 30.8311 1.89941C31.9755 1.89927 32.9053 1.04854 32.9053 0H35.4238C35.4238 1.04851 36.3536 1.89922 37.501 1.89941C38.6486 1.89941 39.5781 1.04863 39.5781 0H42.0977C42.0977 1.04856 43.0273 1.89931 44.1748 1.89941C45.3224 1.89941 46.252 1.04863 46.252 0H48V28C48 46 24 64 24 64C24 64 0 46 0 28V0H2.07422Z" fill="#233260"/>
<path d="M16.8389 12L16.8115 12.0029C16.4666 12.0407 15.9297 12.1786 15.5615 12.5361C15.3644 12.7277 15.2105 12.9899 15.1816 13.3213C15.1535 13.6452 15.2501 13.9778 15.4434 14.3105C16.0337 15.327 17.5678 17.8421 18.417 19.2275C17.6506 20.1189 16.7924 21.1291 16.4688 21.5537C16.1676 21.9488 15.9982 22.4523 15.9023 22.8838C15.8049 23.3223 15.7715 23.739 15.7715 24.001V27.2041H14.8848C14.2002 27.2042 13.7086 27.4517 13.3955 27.8184C13.0983 28.1664 12.9981 28.5797 12.998 28.874V31.7979C12.998 32.4673 13.3451 32.91 13.7588 33.1611C14.146 33.3962 14.589 33.4677 14.8848 33.4678H15.7744C15.8018 34.3329 16.1495 34.9526 16.6064 35.3623C17.0663 35.7745 17.6149 35.9568 18.001 35.999L18.0273 36.002H29.3486C30.5222 36.0019 31.3141 35.5492 31.8008 34.9355C32.1779 34.4598 32.3497 33.9131 32.4033 33.4678H33.3115C33.8787 33.4677 34.3068 33.3107 34.5986 33.0449C34.8837 32.7852 35 32.4544 35 32.1875V29.2637C34.9999 28.5269 34.7614 27.9971 34.3975 27.6533C34.047 27.3223 33.6227 27.2042 33.3115 27.2041H32.4238V24.001C32.4238 22.8003 31.9922 21.901 31.7275 21.5537L31.7119 21.5322L31.6934 21.5137L30.5713 20.3115C30.2374 19.9505 29.8917 19.5716 29.5771 19.2227C30.491 17.7798 32.1152 15.1779 32.5684 14.2861C32.7511 13.9266 32.8287 13.5635 32.7539 13.2168C32.6779 12.8647 32.4618 12.6072 32.2119 12.4316C31.7398 12.0999 31.0697 12 30.5371 12C29.5354 12.0001 28.8095 12.6423 28.5547 12.9766L28.5322 13.0059L28.5146 13.0381L26.292 17.0723C26.2523 17.0707 26.2144 17.0684 26.1787 17.0684H25.6875V16.0088C25.6875 15.7433 25.5959 15.3765 25.3262 15.0693C25.0412 14.7448 24.5996 14.5342 23.999 14.5342C23.3984 14.5342 22.9568 14.7449 22.6719 15.0693C22.4021 15.3765 22.3105 15.7433 22.3105 16.0088V17.0684H22.2158C22.0398 17.0684 21.8708 17.0773 21.709 17.0938L19.6914 13.0557L19.6895 13.0527C19.5937 12.8644 19.4113 12.613 19.1514 12.4033C18.8869 12.19 18.5151 12 18.0547 12H16.8389ZM31.4238 30.9336V33.1621C31.4238 33.4615 31.3209 33.9307 31.0176 34.3135C30.7316 34.6742 30.2353 35.0019 29.3486 35.002H18.0938C17.8842 34.9755 17.5506 34.8647 17.2744 34.6172C17.0078 34.3781 16.7715 33.9936 16.7715 33.3574V30.9336H31.4238ZM33.3115 28.2041C33.3967 28.2042 33.5664 28.2433 33.7109 28.3799C33.8422 28.5038 33.9999 28.7534 34 29.2637V32.1875C33.9998 32.1835 33.9957 32.242 33.9258 32.3057C33.8611 32.3646 33.6948 32.4677 33.3115 32.4678H32.4238V28.2041H33.3115ZM15.7715 28.2041V32.4678H14.8848C14.7183 32.4677 14.4678 32.4223 14.2773 32.3066C14.1132 32.2069 13.998 32.064 13.998 31.7979V28.874C13.9981 28.7785 14.0365 28.607 14.1553 28.4678C14.2582 28.3472 14.4601 28.2041 14.8848 28.2041H15.7715ZM26.1787 18.0684C26.2609 18.0684 26.3759 18.0752 26.5098 18.0928C26.7361 18.1226 26.9955 18.1813 27.2305 18.2793C27.4684 18.3785 27.65 18.5048 27.7617 18.6514C27.9265 18.8675 28.2287 19.2163 28.5791 19.6094C29.3267 20.448 30.352 21.5489 30.9424 22.1748C31.0818 22.3689 31.4238 23.0444 31.4238 24.001V29.9336H16.7715V24.001C16.7715 23.8082 16.7981 23.4644 16.8789 23.1006C16.9613 22.7299 17.0895 22.3888 17.2637 22.1602C17.5986 21.7208 18.5846 20.5632 19.4121 19.6035C19.711 19.2569 19.9866 18.9385 20.1992 18.6943C20.3379 18.5649 20.7915 18.2625 21.5127 18.1309C21.7254 18.0921 21.9605 18.0684 22.2158 18.0684H26.1787ZM20.0361 22.1367C19.7755 22.1368 19.3839 22.1968 19.0391 22.4004C18.6684 22.6192 18.3477 23.0129 18.3477 23.6113V26.9248C18.3477 27.1917 18.464 27.5216 18.749 27.7812C19.0409 28.0471 19.4688 28.2041 20.0361 28.2041H28.3584C28.6017 28.204 28.9566 28.1366 29.2656 27.918C29.6008 27.6805 29.8486 27.2858 29.8486 26.7295V23.6113C29.8486 23.3672 29.7781 23.0126 29.5537 22.7061C29.3111 22.3747 28.9137 22.1369 28.3584 22.1367H20.0361ZM28.3584 23.1367C28.5947 23.1368 28.6926 23.2225 28.7471 23.2969C28.8199 23.3964 28.8486 23.5306 28.8486 23.6113V26.7295C28.8486 26.9527 28.766 27.0466 28.6885 27.1016C28.5852 27.1747 28.4452 27.204 28.3584 27.2041H20.0361C19.6528 27.2041 19.4866 27.1009 19.4219 27.042C19.3507 26.9769 19.3477 26.9179 19.3477 26.9248V23.6113C19.3477 23.43 19.4231 23.3353 19.5479 23.2617C19.6981 23.1731 19.9006 23.1368 20.0361 23.1367H28.3584ZM30.5371 13C30.995 13 31.4153 13.0945 31.6367 13.25C31.7335 13.318 31.7656 13.3779 31.7764 13.4277C31.7883 13.4831 31.7912 13.6078 31.6768 13.833C31.2717 14.6301 29.8207 16.964 28.8867 18.4434C28.7441 18.2773 28.6311 18.1413 28.5576 18.0449C28.303 17.7109 27.9494 17.4948 27.6152 17.3555C27.522 17.3166 27.4276 17.2835 27.334 17.2539L29.3672 13.5625C29.5256 13.3697 29.9751 13.0001 30.5371 13ZM18.0547 13C18.2281 13 18.3851 13.0702 18.5234 13.1816C18.6658 13.2965 18.7613 13.4342 18.7979 13.5059V13.5049L20.6992 17.3086C20.1177 17.5042 19.7002 17.7817 19.4873 17.9912L19.4736 18.0049L19.4609 18.0195C19.3559 18.1401 19.2354 18.2795 19.1035 18.4316C18.2332 17.0101 16.8547 14.7505 16.3076 13.8086C16.1839 13.5956 16.1725 13.4678 16.1777 13.4072C16.1824 13.3545 16.2037 13.3074 16.2588 13.2539C16.3927 13.1239 16.6593 13.0296 16.9043 13H18.0547ZM23.999 15.5342C24.3493 15.5342 24.5025 15.6479 24.5742 15.7295C24.6611 15.8284 24.6875 15.9494 24.6875 16.0088V17.0684H23.3105V16.0088C23.3105 15.9494 23.337 15.8284 23.4238 15.7295C23.4955 15.6479 23.6487 15.5342 23.999 15.5342Z" fill="#F4F5F9"/>
</svg>
